<mxfile host="app.diagrams.net" agent="Mozilla/5.0 (Windows NT 10.0; Win64; x64) AppleWebKit/537.36 (KHTML, like Gecko) Chrome/138.0.0.0 Safari/537.36" version="28.0.7">
  <diagram id="C5RBs43oDa-KdzZeNtuy" name="Page-1">
    <mxGraphModel dx="815" dy="438" grid="1" gridSize="10" guides="1" tooltips="1" connect="1" arrows="1" fold="1" page="1" pageScale="1" pageWidth="827" pageHeight="1169" math="0" shadow="0">
      <root>
        <mxCell id="WIyWlLk6GJQsqaUBKTNV-0" />
        <mxCell id="WIyWlLk6GJQsqaUBKTNV-1" parent="WIyWlLk6GJQsqaUBKTNV-0" />
        <mxCell id="g53rIc3Xlmnlkb49oTDN-0" value="体育项目测对接流程" style="swimlane;childLayout=stackLayout;resizeParent=1;resizeParentMax=0;startSize=20;html=1;" parent="WIyWlLk6GJQsqaUBKTNV-1" vertex="1">
          <mxGeometry x="220.00000000000045" y="105" width="404.99999999999955" height="480" as="geometry" />
        </mxCell>
        <mxCell id="g53rIc3Xlmnlkb49oTDN-1" value="前端" style="swimlane;startSize=20;html=1;" parent="g53rIc3Xlmnlkb49oTDN-0" vertex="1">
          <mxGeometry y="20" width="120" height="460" as="geometry" />
        </mxCell>
        <mxCell id="synFvZOogWXM2Xgc4FMd-0" value="人脸识别成功" style="ellipse;whiteSpace=wrap;html=1;" vertex="1" parent="g53rIc3Xlmnlkb49oTDN-1">
          <mxGeometry x="9.999999999999545" y="75" width="90" height="40" as="geometry" />
        </mxCell>
        <mxCell id="synFvZOogWXM2Xgc4FMd-16" value="保存当个区域的视频id" style="whiteSpace=wrap;html=1;" vertex="1" parent="g53rIc3Xlmnlkb49oTDN-1">
          <mxGeometry x="14.999999999999545" y="155" width="85" height="35" as="geometry" />
        </mxCell>
        <mxCell id="g53rIc3Xlmnlkb49oTDN-2" value="算法" style="swimlane;startSize=20;html=1;" parent="g53rIc3Xlmnlkb49oTDN-0" vertex="1">
          <mxGeometry x="120" y="20" width="164.99999999999955" height="460" as="geometry" />
        </mxCell>
        <mxCell id="synFvZOogWXM2Xgc4FMd-5" value="" style="edgeStyle=orthogonalEdgeStyle;rounded=0;orthogonalLoop=1;jettySize=auto;html=1;" edge="1" parent="g53rIc3Xlmnlkb49oTDN-2" source="synFvZOogWXM2Xgc4FMd-1" target="synFvZOogWXM2Xgc4FMd-4">
          <mxGeometry relative="1" as="geometry" />
        </mxCell>
        <mxCell id="synFvZOogWXM2Xgc4FMd-1" value="开启测试区域的视频录制" style="whiteSpace=wrap;html=1;" vertex="1" parent="g53rIc3Xlmnlkb49oTDN-2">
          <mxGeometry x="40" y="77.5" width="85" height="35" as="geometry" />
        </mxCell>
        <mxCell id="synFvZOogWXM2Xgc4FMd-4" value="返回录制的视频Id" style="whiteSpace=wrap;html=1;" vertex="1" parent="g53rIc3Xlmnlkb49oTDN-2">
          <mxGeometry x="40" y="155" width="85" height="35" as="geometry" />
        </mxCell>
        <mxCell id="g53rIc3Xlmnlkb49oTDN-3" value="Lane 3" style="swimlane;startSize=20;html=1;" parent="g53rIc3Xlmnlkb49oTDN-0" vertex="1">
          <mxGeometry x="284.99999999999955" y="20" width="120" height="460" as="geometry" />
        </mxCell>
        <mxCell id="synFvZOogWXM2Xgc4FMd-2" value="" style="edgeStyle=orthogonalEdgeStyle;rounded=0;orthogonalLoop=1;jettySize=auto;html=1;" edge="1" parent="g53rIc3Xlmnlkb49oTDN-0" source="synFvZOogWXM2Xgc4FMd-0" target="synFvZOogWXM2Xgc4FMd-1">
          <mxGeometry relative="1" as="geometry" />
        </mxCell>
        <mxCell id="synFvZOogWXM2Xgc4FMd-3" value="开始录制" style="edgeLabel;html=1;align=center;verticalAlign=middle;resizable=0;points=[];" vertex="1" connectable="0" parent="synFvZOogWXM2Xgc4FMd-2">
          <mxGeometry x="-0.0905" y="1" relative="1" as="geometry">
            <mxPoint as="offset" />
          </mxGeometry>
        </mxCell>
        <mxCell id="synFvZOogWXM2Xgc4FMd-17" style="edgeStyle=orthogonalEdgeStyle;rounded=0;orthogonalLoop=1;jettySize=auto;html=1;entryX=1;entryY=0.5;entryDx=0;entryDy=0;" edge="1" parent="g53rIc3Xlmnlkb49oTDN-0" source="synFvZOogWXM2Xgc4FMd-4" target="synFvZOogWXM2Xgc4FMd-16">
          <mxGeometry relative="1" as="geometry" />
        </mxCell>
      </root>
    </mxGraphModel>
  </diagram>
</mxfile>
